<mxfile host="embed.diagrams.net" modified="2024-05-23T07:03:44.508Z" agent="Mozilla/5.0 (X11; Linux x86_64; rv:124.0) Gecko/20100101 Firefox/124.0" etag="csebtnEza7SyYHOfeBNk" version="24.4.4" type="embed">
  <diagram id="C5RBs43oDa-KdzZeNtuy" name="Page-1">
    <mxGraphModel grid="1" page="1" gridSize="10" guides="1" tooltips="1" connect="1" arrows="1" fold="1" pageScale="1" pageWidth="827" pageHeight="1169" math="0" shadow="0">
      <root>
        <mxCell id="WIyWlLk6GJQsqaUBKTNV-0" />
        <mxCell id="WIyWlLk6GJQsqaUBKTNV-1" parent="WIyWlLk6GJQsqaUBKTNV-0" />
        <mxCell id="_89RY_O9F6Pouwy62yrV-0" value="Platform" style="swimlane;fontStyle=0;childLayout=stackLayout;horizontal=1;startSize=26;fillColor=none;horizontalStack=0;resizeParent=1;resizeParentMax=0;resizeLast=0;collapsible=1;marginBottom=0;whiteSpace=wrap;html=1;" vertex="1" parent="WIyWlLk6GJQsqaUBKTNV-1">
          <mxGeometry x="320" y="120" width="160" height="52" as="geometry" />
        </mxCell>
        <mxCell id="0cwygxxAIZHFUbeTD5u6-6" style="edgeStyle=orthogonalEdgeStyle;rounded=0;orthogonalLoop=1;jettySize=auto;html=1;exitX=0.5;exitY=0;exitDx=0;exitDy=0;entryX=0.5;entryY=1;entryDx=0;entryDy=0;" edge="1" parent="WIyWlLk6GJQsqaUBKTNV-1" source="_89RY_O9F6Pouwy62yrV-4" target="_89RY_O9F6Pouwy62yrV-0">
          <mxGeometry relative="1" as="geometry" />
        </mxCell>
        <mxCell id="_89RY_O9F6Pouwy62yrV-4" value="Device" style="swimlane;fontStyle=0;childLayout=stackLayout;horizontal=1;startSize=26;fillColor=none;horizontalStack=0;resizeParent=1;resizeParentMax=0;resizeLast=0;collapsible=1;marginBottom=0;whiteSpace=wrap;html=1;" vertex="1" parent="WIyWlLk6GJQsqaUBKTNV-1">
          <mxGeometry x="320" y="220" width="160" height="52" as="geometry" />
        </mxCell>
        <mxCell id="_89RY_O9F6Pouwy62yrV-12" style="edgeStyle=orthogonalEdgeStyle;rounded=0;orthogonalLoop=1;jettySize=auto;html=1;exitX=0.5;exitY=1;exitDx=0;exitDy=0;entryX=0.5;entryY=0;entryDx=0;entryDy=0;" edge="1" parent="WIyWlLk6GJQsqaUBKTNV-1" source="_89RY_O9F6Pouwy62yrV-5" target="_89RY_O9F6Pouwy62yrV-0">
          <mxGeometry relative="1" as="geometry" />
        </mxCell>
        <mxCell id="_89RY_O9F6Pouwy62yrV-5" value="Accelerator" style="swimlane;fontStyle=0;childLayout=stackLayout;horizontal=1;startSize=26;fillColor=none;horizontalStack=0;resizeParent=1;resizeParentMax=0;resizeLast=0;collapsible=1;marginBottom=0;whiteSpace=wrap;html=1;" vertex="1" parent="WIyWlLk6GJQsqaUBKTNV-1">
          <mxGeometry x="320" y="20" width="160" height="52" as="geometry" />
        </mxCell>
        <mxCell id="_89RY_O9F6Pouwy62yrV-14" style="edgeStyle=orthogonalEdgeStyle;rounded=0;orthogonalLoop=1;jettySize=auto;html=1;exitX=0.5;exitY=0;exitDx=0;exitDy=0;entryX=0.5;entryY=1;entryDx=0;entryDy=0;" edge="1" parent="WIyWlLk6GJQsqaUBKTNV-1" source="_89RY_O9F6Pouwy62yrV-6" target="_89RY_O9F6Pouwy62yrV-4">
          <mxGeometry relative="1" as="geometry" />
        </mxCell>
        <mxCell id="_89RY_O9F6Pouwy62yrV-6" value="Queue" style="swimlane;fontStyle=0;childLayout=stackLayout;horizontal=1;startSize=26;fillColor=none;horizontalStack=0;resizeParent=1;resizeParentMax=0;resizeLast=0;collapsible=1;marginBottom=0;whiteSpace=wrap;html=1;" vertex="1" parent="WIyWlLk6GJQsqaUBKTNV-1">
          <mxGeometry x="320" y="320" width="160" height="52" as="geometry" />
        </mxCell>
        <mxCell id="_89RY_O9F6Pouwy62yrV-15" style="edgeStyle=orthogonalEdgeStyle;rounded=0;orthogonalLoop=1;jettySize=auto;html=1;exitX=0.5;exitY=0;exitDx=0;exitDy=0;entryX=0.5;entryY=1;entryDx=0;entryDy=0;" edge="1" parent="WIyWlLk6GJQsqaUBKTNV-1" source="_89RY_O9F6Pouwy62yrV-7" target="_89RY_O9F6Pouwy62yrV-6">
          <mxGeometry relative="1" as="geometry" />
        </mxCell>
        <mxCell id="_89RY_O9F6Pouwy62yrV-7" value="TaskKernel" style="swimlane;fontStyle=0;childLayout=stackLayout;horizontal=1;startSize=26;fillColor=none;horizontalStack=0;resizeParent=1;resizeParentMax=0;resizeLast=0;collapsible=1;marginBottom=0;whiteSpace=wrap;html=1;" vertex="1" parent="WIyWlLk6GJQsqaUBKTNV-1">
          <mxGeometry x="20" y="476" width="120" height="52" as="geometry" />
        </mxCell>
        <mxCell id="0cwygxxAIZHFUbeTD5u6-2" style="edgeStyle=orthogonalEdgeStyle;rounded=0;orthogonalLoop=1;jettySize=auto;html=1;exitX=0.5;exitY=0;exitDx=0;exitDy=0;entryX=0.5;entryY=1;entryDx=0;entryDy=0;" edge="1" parent="WIyWlLk6GJQsqaUBKTNV-1" source="_89RY_O9F6Pouwy62yrV-8" target="_89RY_O9F6Pouwy62yrV-6">
          <mxGeometry relative="1" as="geometry">
            <mxPoint x="400" y="390" as="targetPoint" />
          </mxGeometry>
        </mxCell>
        <mxCell id="_89RY_O9F6Pouwy62yrV-8" value="Event" style="swimlane;fontStyle=0;childLayout=stackLayout;horizontal=1;startSize=26;fillColor=none;horizontalStack=0;resizeParent=1;resizeParentMax=0;resizeLast=0;collapsible=1;marginBottom=0;whiteSpace=wrap;html=1;" vertex="1" parent="WIyWlLk6GJQsqaUBKTNV-1">
          <mxGeometry x="660" y="476" width="119" height="52" as="geometry" />
        </mxCell>
        <mxCell id="0cwygxxAIZHFUbeTD5u6-0" style="edgeStyle=orthogonalEdgeStyle;rounded=0;orthogonalLoop=1;jettySize=auto;html=1;exitX=0.5;exitY=0;exitDx=0;exitDy=0;entryX=0.5;entryY=1;entryDx=0;entryDy=0;" edge="1" parent="WIyWlLk6GJQsqaUBKTNV-1" source="_89RY_O9F6Pouwy62yrV-9" target="_89RY_O9F6Pouwy62yrV-6">
          <mxGeometry relative="1" as="geometry" />
        </mxCell>
        <mxCell id="_89RY_O9F6Pouwy62yrV-9" value="Set" style="swimlane;fontStyle=0;childLayout=stackLayout;horizontal=1;startSize=26;fillColor=none;horizontalStack=0;resizeParent=1;resizeParentMax=0;resizeLast=0;collapsible=1;marginBottom=0;whiteSpace=wrap;html=1;" vertex="1" parent="WIyWlLk6GJQsqaUBKTNV-1">
          <mxGeometry x="500" y="476" width="119" height="52" as="geometry" />
        </mxCell>
        <mxCell id="0cwygxxAIZHFUbeTD5u6-1" style="edgeStyle=orthogonalEdgeStyle;rounded=0;orthogonalLoop=1;jettySize=auto;html=1;exitX=0.5;exitY=0;exitDx=0;exitDy=0;entryX=0.5;entryY=1;entryDx=0;entryDy=0;" edge="1" parent="WIyWlLk6GJQsqaUBKTNV-1" source="_89RY_O9F6Pouwy62yrV-10" target="_89RY_O9F6Pouwy62yrV-6">
          <mxGeometry relative="1" as="geometry">
            <mxPoint x="400" y="390" as="targetPoint" />
          </mxGeometry>
        </mxCell>
        <mxCell id="_89RY_O9F6Pouwy62yrV-10" value="&lt;div&gt;Copy&lt;/div&gt;" style="swimlane;fontStyle=0;childLayout=stackLayout;horizontal=1;startSize=26;fillColor=none;horizontalStack=0;resizeParent=1;resizeParentMax=0;resizeLast=0;collapsible=1;marginBottom=0;whiteSpace=wrap;html=1;" vertex="1" parent="WIyWlLk6GJQsqaUBKTNV-1">
          <mxGeometry x="340.5" y="476" width="119" height="52" as="geometry" />
        </mxCell>
        <mxCell id="0cwygxxAIZHFUbeTD5u6-3" value="enqueue" style="text;html=1;align=center;verticalAlign=middle;whiteSpace=wrap;rounded=0;" vertex="1" parent="WIyWlLk6GJQsqaUBKTNV-1">
          <mxGeometry x="333" y="390" width="60" height="30" as="geometry" />
        </mxCell>
        <mxCell id="gdM_A6FijBuCJfI3t9ke-3" value="1" style="text;html=1;align=center;verticalAlign=middle;whiteSpace=wrap;rounded=0;" vertex="1" parent="WIyWlLk6GJQsqaUBKTNV-1">
          <mxGeometry x="384" y="100" width="60" height="30" as="geometry" />
        </mxCell>
        <mxCell id="gdM_A6FijBuCJfI3t9ke-4" value="1..N" style="text;html=1;align=center;verticalAlign=middle;resizable=0;points=[];autosize=1;strokeColor=none;fillColor=none;" vertex="1" parent="WIyWlLk6GJQsqaUBKTNV-1">
          <mxGeometry x="396" y="72" width="50" height="30" as="geometry" />
        </mxCell>
        <mxCell id="gdM_A6FijBuCJfI3t9ke-5" value="1" style="text;html=1;align=center;verticalAlign=middle;whiteSpace=wrap;rounded=0;" vertex="1" parent="WIyWlLk6GJQsqaUBKTNV-1">
          <mxGeometry x="384" y="170" width="60" height="30" as="geometry" />
        </mxCell>
        <mxCell id="gdM_A6FijBuCJfI3t9ke-6" value="1..N" style="text;html=1;align=center;verticalAlign=middle;resizable=0;points=[];autosize=1;strokeColor=none;fillColor=none;" vertex="1" parent="WIyWlLk6GJQsqaUBKTNV-1">
          <mxGeometry x="396" y="200" width="50" height="30" as="geometry" />
        </mxCell>
        <mxCell id="gdM_A6FijBuCJfI3t9ke-10" value="1" style="text;html=1;align=center;verticalAlign=middle;whiteSpace=wrap;rounded=0;" vertex="1" parent="WIyWlLk6GJQsqaUBKTNV-1">
          <mxGeometry x="383" y="270" width="60" height="30" as="geometry" />
        </mxCell>
        <mxCell id="gdM_A6FijBuCJfI3t9ke-11" value="1..N" style="text;html=1;align=center;verticalAlign=middle;resizable=0;points=[];autosize=1;strokeColor=none;fillColor=none;" vertex="1" parent="WIyWlLk6GJQsqaUBKTNV-1">
          <mxGeometry x="395" y="300" width="50" height="30" as="geometry" />
        </mxCell>
        <mxCell id="gdM_A6FijBuCJfI3t9ke-12" value="1" style="text;html=1;align=center;verticalAlign=middle;whiteSpace=wrap;rounded=0;" vertex="1" parent="WIyWlLk6GJQsqaUBKTNV-1">
          <mxGeometry x="380" y="369" width="60" height="30" as="geometry" />
        </mxCell>
        <mxCell id="gdM_A6FijBuCJfI3t9ke-13" value="1..N" style="text;html=1;align=center;verticalAlign=middle;resizable=0;points=[];autosize=1;strokeColor=none;fillColor=none;" vertex="1" parent="WIyWlLk6GJQsqaUBKTNV-1">
          <mxGeometry x="393" y="401" width="50" height="30" as="geometry" />
        </mxCell>
        <mxCell id="e06I5Mi9g5_ztXaEmBsW-1" style="edgeStyle=orthogonalEdgeStyle;rounded=0;orthogonalLoop=1;jettySize=auto;html=1;exitX=0.5;exitY=0;exitDx=0;exitDy=0;entryX=0.5;entryY=1;entryDx=0;entryDy=0;" edge="1" parent="WIyWlLk6GJQsqaUBKTNV-1" source="e06I5Mi9g5_ztXaEmBsW-0" target="_89RY_O9F6Pouwy62yrV-6">
          <mxGeometry relative="1" as="geometry">
            <mxPoint x="300" y="400" as="targetPoint" />
          </mxGeometry>
        </mxCell>
        <mxCell id="e06I5Mi9g5_ztXaEmBsW-0" value="HostTask" style="swimlane;fontStyle=0;childLayout=stackLayout;horizontal=1;startSize=26;fillColor=none;horizontalStack=0;resizeParent=1;resizeParentMax=0;resizeLast=0;collapsible=1;marginBottom=0;whiteSpace=wrap;html=1;" vertex="1" parent="WIyWlLk6GJQsqaUBKTNV-1">
          <mxGeometry x="180" y="476" width="119" height="52" as="geometry" />
        </mxCell>
      </root>
    </mxGraphModel>
  </diagram>
</mxfile>
